<mxfile host="app.diagrams.net" agent="Mozilla/5.0 (Windows NT 10.0; Win64; x64) AppleWebKit/537.36 (KHTML, like Gecko) Chrome/130.0.0.0 Safari/537.36" version="24.8.4">
  <diagram id="Ht1M8jgEwFfnCIfOTk4-" name="Page-1">
    <mxGraphModel dx="1562" dy="810" grid="1" gridSize="10" guides="1" tooltips="1" connect="1" arrows="1" fold="1" page="1" pageScale="1" pageWidth="1169" pageHeight="827" math="0" shadow="0">
      <root>
        <mxCell id="0" />
        <mxCell id="1" parent="0" />
        <mxCell id="KcYLGZ2GjR2jxuOkW4ey-5" value="Cliente/Prospect Interface" style="whiteSpace=wrap;strokeWidth=2;" vertex="1" parent="1">
          <mxGeometry x="50" y="488" width="590" height="365" as="geometry" />
        </mxCell>
        <mxCell id="-QjtrjUzRDEMRZ5MF8oH-47" value="Arquitetura Chatbot SoluBio - Dra. Jô&lt;div&gt;&lt;br&gt;&lt;/div&gt;" style="text;html=1;resizable=0;points=[];autosize=1;align=left;verticalAlign=top;spacingTop=-4;fontSize=30;fontStyle=1" parent="1" vertex="1">
          <mxGeometry x="56.5" y="64.5" width="520" height="80" as="geometry" />
        </mxCell>
        <mxCell id="SCVMTBWpLvtzJIhz15lM-1" value="" style="line;strokeWidth=2;html=1;fontSize=14;" parent="1" vertex="1">
          <mxGeometry x="52.5" y="139.5" width="1060" height="10" as="geometry" />
        </mxCell>
        <mxCell id="KcYLGZ2GjR2jxuOkW4ey-1" value="" style="points=[[0.35,0,0],[0.98,0.51,0],[1,0.71,0],[0.67,1,0],[0,0.795,0],[0,0.65,0]];verticalLabelPosition=bottom;sketch=0;html=1;verticalAlign=top;aspect=fixed;align=center;pointerEvents=1;shape=mxgraph.cisco19.user;fillColor=#005073;strokeColor=none;" vertex="1" parent="1">
          <mxGeometry x="180" y="641" width="50" height="50" as="geometry" />
        </mxCell>
        <mxCell id="KcYLGZ2GjR2jxuOkW4ey-2" value="AWS Cloud" style="whiteSpace=wrap;strokeWidth=2;" vertex="1" parent="1">
          <mxGeometry x="690" y="360" width="1280" height="612" as="geometry" />
        </mxCell>
        <mxCell id="KcYLGZ2GjR2jxuOkW4ey-3" value="AZ-2" style="whiteSpace=wrap;strokeWidth=2;" vertex="1" parent="1">
          <mxGeometry x="993" y="380" width="952" height="474" as="geometry" />
        </mxCell>
        <mxCell id="KcYLGZ2GjR2jxuOkW4ey-4" value="AZ-1" style="whiteSpace=wrap;strokeWidth=2;" vertex="1" parent="1">
          <mxGeometry x="715" y="479" width="228" height="315" as="geometry" />
        </mxCell>
        <mxCell id="KcYLGZ2GjR2jxuOkW4ey-9" value="API Gateway" style="whiteSpace=wrap;strokeWidth=2;" vertex="1" parent="1">
          <mxGeometry x="753" y="514" width="152" height="48" as="geometry" />
        </mxCell>
        <mxCell id="KcYLGZ2GjR2jxuOkW4ey-10" value="CloudWatch" style="whiteSpace=wrap;strokeWidth=2;" vertex="1" parent="1">
          <mxGeometry x="756" y="612" width="145" height="48" as="geometry" />
        </mxCell>
        <mxCell id="KcYLGZ2GjR2jxuOkW4ey-11" value="Secrets Manager" style="whiteSpace=wrap;strokeWidth=2;" vertex="1" parent="1">
          <mxGeometry x="740" y="710" width="178" height="48" as="geometry" />
        </mxCell>
        <mxCell id="KcYLGZ2GjR2jxuOkW4ey-12" value="Lambda: Processador" style="whiteSpace=wrap;strokeWidth=2;" vertex="1" parent="1">
          <mxGeometry x="1018" y="514" width="212" height="48" as="geometry" />
        </mxCell>
        <mxCell id="KcYLGZ2GjR2jxuOkW4ey-13" value="Lambda: Consultas Oracle" style="whiteSpace=wrap;strokeWidth=2;" vertex="1" parent="1">
          <mxGeometry x="1673" y="415" width="246" height="48" as="geometry" />
        </mxCell>
        <mxCell id="KcYLGZ2GjR2jxuOkW4ey-14" value="Lambda: Notificações" style="whiteSpace=wrap;strokeWidth=2;" vertex="1" parent="1">
          <mxGeometry x="1689" y="651" width="215" height="49" as="geometry" />
        </mxCell>
        <mxCell id="KcYLGZ2GjR2jxuOkW4ey-15" value="RDS Oracle Multi-AZ" style="whiteSpace=wrap;strokeWidth=2;" vertex="1" parent="1">
          <mxGeometry x="1420" y="464" width="203" height="48" as="geometry" />
        </mxCell>
        <mxCell id="KcYLGZ2GjR2jxuOkW4ey-16" value="DynamoDB Sessões" style="whiteSpace=wrap;strokeWidth=2;" vertex="1" parent="1">
          <mxGeometry x="1425" y="622" width="194" height="48" as="geometry" />
        </mxCell>
        <mxCell id="KcYLGZ2GjR2jxuOkW4ey-17" value="Security Group" style="whiteSpace=wrap;strokeWidth=2;" vertex="1" parent="1">
          <mxGeometry x="1713" y="889" width="166" height="48" as="geometry" />
        </mxCell>
        <mxCell id="KcYLGZ2GjR2jxuOkW4ey-18" value="Inbound" style="curved=1;startArrow=none;endArrow=block;exitX=0.67;exitY=-0.01;entryX=0.36;entryY=-0.01;rounded=0;" edge="1" parent="1">
          <mxGeometry relative="1" as="geometry">
            <Array as="points">
              <mxPoint x="361" y="533" />
            </Array>
            <mxPoint x="217.33333333333348" y="652" as="sourcePoint" />
            <mxPoint x="490.0980392156862" y="652" as="targetPoint" />
          </mxGeometry>
        </mxCell>
        <mxCell id="KcYLGZ2GjR2jxuOkW4ey-19" value="" style="curved=1;startArrow=none;endArrow=block;exitX=0.61;exitY=-0.01;entryX=0;entryY=0.5;rounded=0;" edge="1" parent="1" target="KcYLGZ2GjR2jxuOkW4ey-9">
          <mxGeometry relative="1" as="geometry">
            <Array as="points">
              <mxPoint x="640" y="538" />
            </Array>
            <mxPoint x="538.1372549019607" y="652" as="sourcePoint" />
          </mxGeometry>
        </mxCell>
        <mxCell id="KcYLGZ2GjR2jxuOkW4ey-20" value="" style="curved=1;startArrow=none;endArrow=block;exitX=1;exitY=0.5;entryX=0;entryY=0.5;rounded=0;" edge="1" parent="1" source="KcYLGZ2GjR2jxuOkW4ey-9" target="KcYLGZ2GjR2jxuOkW4ey-12">
          <mxGeometry relative="1" as="geometry">
            <Array as="points" />
          </mxGeometry>
        </mxCell>
        <mxCell id="KcYLGZ2GjR2jxuOkW4ey-21" value="Gravação e Leitura" style="curved=1;startArrow=none;endArrow=block;exitX=0.97;exitY=-0.01;entryX=0;entryY=0.51;rounded=0;" edge="1" parent="1" source="KcYLGZ2GjR2jxuOkW4ey-12" target="KcYLGZ2GjR2jxuOkW4ey-15">
          <mxGeometry relative="1" as="geometry">
            <Array as="points">
              <mxPoint x="1325" y="489" />
            </Array>
          </mxGeometry>
        </mxCell>
        <mxCell id="KcYLGZ2GjR2jxuOkW4ey-22" value="Gravação e Leitura" style="curved=1;startArrow=none;endArrow=block;exitX=0.71;exitY=1;entryX=0;entryY=0.5;rounded=0;" edge="1" parent="1" source="KcYLGZ2GjR2jxuOkW4ey-12" target="KcYLGZ2GjR2jxuOkW4ey-16">
          <mxGeometry relative="1" as="geometry">
            <Array as="points">
              <mxPoint x="1325" y="646" />
            </Array>
          </mxGeometry>
        </mxCell>
        <mxCell id="KcYLGZ2GjR2jxuOkW4ey-23" value="" style="curved=1;startArrow=none;endArrow=block;exitX=1;exitY=0.51;entryX=0.41;entryY=0;rounded=0;" edge="1" parent="1" source="KcYLGZ2GjR2jxuOkW4ey-15" target="KcYLGZ2GjR2jxuOkW4ey-14">
          <mxGeometry relative="1" as="geometry">
            <Array as="points">
              <mxPoint x="1648" y="489" />
            </Array>
          </mxGeometry>
        </mxCell>
        <mxCell id="KcYLGZ2GjR2jxuOkW4ey-24" value="" style="curved=1;startArrow=none;endArrow=block;exitX=0.38;exitY=1.01;entryX=0.61;entryY=1;rounded=0;" edge="1" parent="1" source="KcYLGZ2GjR2jxuOkW4ey-14">
          <mxGeometry relative="1" as="geometry">
            <Array as="points">
              <mxPoint x="1648" y="814" />
              <mxPoint x="640" y="814" />
            </Array>
            <mxPoint x="538.56" y="700" as="targetPoint" />
          </mxGeometry>
        </mxCell>
        <mxCell id="KcYLGZ2GjR2jxuOkW4ey-25" value="Resposta" style="curved=1;startArrow=none;endArrow=block;exitX=0.35;exitY=1;entryX=0.68;entryY=1;rounded=0;" edge="1" parent="1">
          <mxGeometry relative="1" as="geometry">
            <Array as="points">
              <mxPoint x="361" y="808" />
            </Array>
            <mxPoint x="487.5999999999999" y="700" as="sourcePoint" />
            <mxPoint x="219.6400000000001" y="700" as="targetPoint" />
          </mxGeometry>
        </mxCell>
        <mxCell id="KcYLGZ2GjR2jxuOkW4ey-26" value="" style="dashed=0;outlineConnect=0;html=1;align=center;labelPosition=center;verticalLabelPosition=bottom;verticalAlign=top;shape=mxgraph.webicons.whatsapp;fillColor=#4FE238;gradientColor=#138709" vertex="1" parent="1">
          <mxGeometry x="490" y="651" width="50" height="49" as="geometry" />
        </mxCell>
      </root>
    </mxGraphModel>
  </diagram>
</mxfile>
